<?xml version="1.0" encoding="UTF-8"?><svg id="Layer_2" xmlns="http://www.w3.org/2000/svg" viewBox="0 0 66.39 23.73"><defs><style>.cls-1{fill:#f5f2ed;}</style></defs><g id="Layer_1-2"><path class="cls-1" d="M56.4,15.73V.32h-1.47l-6.06,13.03L42.78.32h-1.45v14.03c-1.03-.05-2.07-.09-3.12-.11.18-.22.34-.47.47-.73.28-.57.42-1.21.42-1.93s-.13-1.35-.4-1.83c-.27-.48-.6-.87-1.01-1.17-.41-.3-.82-.53-1.25-.69-.43-.16-.8-.29-1.11-.37l-3.03-.89c-.4-.11-.82-.26-1.24-.44-.43-.18-.79-.43-1.08-.74-.29-.32-.44-.74-.44-1.26s.16-.98.47-1.38c.32-.4.74-.72,1.29-.95.54-.23,1.16-.35,1.86-.35.72,0,1.38.15,1.97.41.6.27,1.09.65,1.48,1.15.39.49.63,1.08.74,1.75l1.66-.3c-.17-.93-.52-1.73-1.05-2.4-.53-.68-1.2-1.2-2.02-1.57-.81-.37-1.74-.55-2.77-.55-1.02,0-1.93.16-2.72.51-.8.34-1.42.84-1.88,1.47-.46.64-.69,1.4-.69,2.27,0,.52.08.98.25,1.38.16.4.4.75.69,1.05.3.3.65.55,1.05.76.4.21.84.39,1.31.52l3.93,1.17c.27.08.54.18.82.31.28.13.54.28.77.47.24.19.43.42.57.7.14.28.22.63.22,1.03,0,.61-.17,1.14-.52,1.58-.31.41-.74.72-1.27.96-.83-.01-1.67-.02-2.51-.02-.64,0-1.27,0-1.9.01-.27-.12-.52-.25-.76-.42-.83-.57-1.38-1.36-1.64-2.36l-1.61.27c.17.92.54,1.71,1.1,2.38.05.06.12.12.17.18-1.87.05-3.7.13-5.51.23.96-.88,1.63-2.02,2.01-3.41l-1.61-.42c-.33,1.22-.92,2.19-1.77,2.91-.85.72-1.98,1.08-3.37,1.08-1.21,0-2.23-.28-3.04-.83-.81-.56-1.42-1.32-1.83-2.31-.41-.98-.6-2.12-.6-3.41.01-1.29.22-2.43.63-3.42.41-.99,1.01-1.76,1.81-2.31.8-.55,1.81-.83,3.02-.83,1.39,0,2.51.36,3.37,1.08.85.72,1.45,1.69,1.77,2.92l1.61-.42c-.42-1.55-1.2-2.78-2.35-3.71-1.14-.92-2.61-1.38-4.41-1.38-1.54,0-2.84.34-3.9,1.03-1.06.68-1.86,1.63-2.41,2.85-.55,1.21-.82,2.61-.82,4.2s.27,2.98.82,4.2c.54,1.21,1.35,2.16,2.41,2.85.03.02.06.04.09.06-5.33.59-10.22,1.42-14.49,2.45,5.39-.69,11.11-1.22,17.06-1.56,1.11-.06,2.23-.12,3.36-.17,3.32-.15,6.7-.24,10.15-.27.87,0,1.75-.01,2.63-.01,1.04,0,2.07,0,3.1.02,1.69.02,3.37.05,5.04.1.51.01,1.01.03,1.52.05,8.31.28,16.22.92,23.54,1.85-3.03-.73-6.39-1.36-9.99-1.88ZM42.85,14.43V3.85l5.03,10.92c-1.64-.14-3.32-.25-5.03-.35ZM54.9,15.53c-1.66-.22-3.37-.41-5.12-.58l5.12-11.09v11.67Z"/><path class="cls-1" d="M13.45,20.31l-1.15,3.34h.36l.28-.81h1.49l.28.81h.36l-1.15-3.34h-.45ZM13.04,22.53l.63-1.83.63,1.83h-1.26Z"/><polygon class="cls-1" points="19.75 23.27 18.73 20.31 18.37 20.31 19.52 23.66 19.98 23.66 21.13 20.31 20.77 20.31 19.75 23.27"/><rect class="cls-1" x="25.05" y="20.31" width=".34" height="3.34"/><path class="cls-1" d="M30.54,20.31l-1.15,3.34h.36l.28-.81h1.49l.28.81h.36l-1.15-3.34h-.45ZM30.14,22.53l.63-1.83.63,1.83h-1.26Z"/><polygon class="cls-1" points="35.54 20.64 36.71 20.64 36.71 23.66 37.05 23.66 37.05 20.64 38.22 20.64 38.22 20.31 35.54 20.31 35.54 20.64"/><rect class="cls-1" x="42.17" y="20.31" width=".34" height="3.34"/><path class="cls-1" d="M48.93,20.46c-.23-.15-.51-.22-.84-.22s-.61.07-.84.22c-.23.15-.4.35-.52.61-.12.26-.18.56-.18.91s.06.64.18.91c.12.26.29.47.52.61s.51.22.84.22.62-.07.84-.22c.23-.15.4-.35.52-.61.12-.26.18-.56.18-.91s-.06-.64-.18-.91c-.12-.26-.29-.47-.52-.61ZM49.14,22.72c-.09.21-.22.38-.39.5-.17.12-.39.18-.65.18-.26,0-.48-.06-.66-.18-.17-.12-.31-.29-.39-.5-.09-.21-.13-.46-.13-.74,0-.28.05-.52.13-.74.09-.21.22-.38.39-.5.17-.12.39-.18.65-.18.26,0,.48.06.65.18.17.12.31.29.39.5.09.21.13.46.13.74s-.04.52-.13.74Z"/><polygon class="cls-1" points="55.81 23.05 53.97 20.31 53.63 20.31 53.63 23.66 53.97 23.66 53.97 20.91 55.81 23.66 56.15 23.66 56.15 20.31 55.81 20.31 55.81 23.05"/></g></svg>